<svg xmlns="http://www.w3.org/2000/svg" xmlns:xlink="http://www.w3.org/1999/xlink" width="1940" zoomAndPan="magnify" viewBox="0 0 1455 504.749982" height="673" preserveAspectRatio="xMidYMid meet" version="1.0"><defs><g/><clipPath id="ef186b8ffb"><path d="M 0.574219 0.15625 L 504.210938 0.15625 L 504.210938 503.789062 L 0.574219 503.789062 Z M 0.574219 0.15625 " clip-rule="nonzero"/></clipPath><clipPath id="d2fc49f3dd"><path d="M 252.394531 0.15625 C 113.316406 0.15625 0.574219 112.898438 0.574219 251.972656 C 0.574219 391.046875 113.316406 503.789062 252.394531 503.789062 C 391.46875 503.789062 504.210938 391.046875 504.210938 251.972656 C 504.210938 112.898438 391.46875 0.15625 252.394531 0.15625 " clip-rule="nonzero"/></clipPath><clipPath id="3e3b123220"><path d="M 950.804688 0.15625 L 1454.441406 0.15625 L 1454.441406 503.789062 L 950.804688 503.789062 Z M 950.804688 0.15625 " clip-rule="nonzero"/></clipPath><clipPath id="d8856686ca"><path d="M 1202.621094 0.15625 C 1063.546875 0.15625 950.804688 112.898438 950.804688 251.972656 C 950.804688 391.046875 1063.546875 503.789062 1202.621094 503.789062 C 1341.695312 503.789062 1454.441406 391.046875 1454.441406 251.972656 C 1454.441406 112.898438 1341.695312 0.15625 1202.621094 0.15625 " clip-rule="nonzero"/></clipPath><clipPath id="9134433840"><path d="M 252.394531 0.15625 L 1202.621094 0.15625 L 1202.621094 503.789062 L 252.394531 503.789062 Z M 252.394531 0.15625 " clip-rule="nonzero"/></clipPath><clipPath id="0595b31f13"><path d="M 28.773438 31.527344 L 476.011719 31.527344 L 476.011719 478.765625 L 28.773438 478.765625 Z M 28.773438 31.527344 " clip-rule="nonzero"/></clipPath><clipPath id="5e50fa544b"><path d="M 252.394531 31.527344 C 128.890625 31.527344 28.773438 131.644531 28.773438 255.148438 C 28.773438 378.648438 128.890625 478.765625 252.394531 478.765625 C 375.894531 478.765625 476.011719 378.648438 476.011719 255.148438 C 476.011719 131.644531 375.894531 31.527344 252.394531 31.527344 " clip-rule="nonzero"/></clipPath><clipPath id="d7a24c5e3e"><path d="M 212 285 L 293 285 L 293 379.570312 L 212 379.570312 Z M 212 285 " clip-rule="nonzero"/></clipPath><clipPath id="b3cb649891"><path d="M 214 130.691406 L 292 130.691406 L 292 223 L 214 223 Z M 214 130.691406 " clip-rule="nonzero"/></clipPath><clipPath id="c0534e9ce1"><path d="M 156.183594 186 L 221 186 L 221 280 L 156.183594 280 Z M 156.183594 186 " clip-rule="nonzero"/></clipPath><clipPath id="4f73e51f5c"><path d="M 156.183594 256 L 249 256 L 249 323 L 156.183594 323 Z M 156.183594 256 " clip-rule="nonzero"/></clipPath><clipPath id="23c51c5de1"><path d="M 283 229 L 348.835938 229 L 348.835938 324 L 283 324 Z M 283 229 " clip-rule="nonzero"/></clipPath></defs><g clip-path="url(#ef186b8ffb)"><g clip-path="url(#d2fc49f3dd)"><path fill="#0d2d52" d="M 0.574219 0.15625 L 504.210938 0.15625 L 504.210938 503.789062 L 0.574219 503.789062 Z M 0.574219 0.15625 " fill-opacity="1" fill-rule="nonzero"/></g></g><g clip-path="url(#3e3b123220)"><g clip-path="url(#d8856686ca)"><path fill="#0d2d52" d="M 950.804688 0.15625 L 1454.441406 0.15625 L 1454.441406 503.789062 L 950.804688 503.789062 Z M 950.804688 0.15625 " fill-opacity="1" fill-rule="nonzero"/></g></g><g clip-path="url(#9134433840)"><path fill="#0d2d52" d="M 252.394531 0.15625 L 1202.773438 0.15625 L 1202.773438 504.136719 L 252.394531 504.136719 Z M 252.394531 0.15625 " fill-opacity="1" fill-rule="nonzero"/></g><g clip-path="url(#0595b31f13)"><g clip-path="url(#5e50fa544b)"><path fill="#ffffff" d="M 28.773438 31.527344 L 476.011719 31.527344 L 476.011719 478.765625 L 28.773438 478.765625 Z M 28.773438 31.527344 " fill-opacity="1" fill-rule="nonzero"/></g></g><g clip-path="url(#d7a24c5e3e)"><path fill="#0d2d52" d="M 269.0625 340.351562 C 254.335938 325.390625 240.714844 311.558594 226.332031 296.945312 C 230.523438 293.074219 233.953125 289.90625 238.476562 285.734375 C 256.335938 303.621094 274.109375 321.417969 292.132812 339.464844 C 278.582031 352.882812 265.703125 365.640625 251.691406 379.519531 C 239.007812 366.828125 226.066406 353.886719 212.207031 340.019531 C 220.847656 331.328125 228.9375 323.1875 237.851562 314.222656 C 241.75 317.941406 245.3125 321.339844 249.636719 325.464844 C 245.042969 330.429688 240.933594 334.871094 235.984375 340.222656 C 241.558594 344.84375 247 349.359375 253.683594 354.90625 C 257.613281 351.183594 262.667969 346.402344 269.0625 340.351562 Z M 269.0625 340.351562 " fill-opacity="1" fill-rule="nonzero"/></g><g clip-path="url(#b3cb649891)"><path fill="#0d2d52" d="M 252.382812 130.742188 C 264.71875 142.984375 277.585938 155.753906 291.519531 169.582031 C 283.804688 177.296875 275.492188 185.605469 266.601562 194.496094 C 262.476562 190.453125 259.105469 187.148438 255.425781 183.539062 C 260.035156 178.175781 263.96875 173.59375 269.035156 167.699219 C 263.414062 162.441406 258.230469 157.585938 252.117188 151.867188 C 246.773438 157.632812 241.949219 162.839844 236.207031 169.035156 C 249.972656 182.9375 263.632812 196.734375 278.207031 211.460938 C 274.121094 215.203125 270.488281 218.53125 266.382812 222.292969 C 248.980469 204.25 231.765625 186.9375 214.066406 168.585938 C 226.566406 156.5 239.632812 143.070312 252.382812 130.742188 Z M 252.382812 130.742188 " fill-opacity="1" fill-rule="nonzero"/></g><g clip-path="url(#c0534e9ce1)"><path fill="#0d2d52" d="M 220.945312 211.5 C 216.75 215.902344 213.515625 219.296875 209.960938 223.03125 C 204.824219 218.335938 200.601562 214.480469 195.335938 209.671875 C 189.769531 215.003906 184.5 220.058594 178.757812 225.5625 C 193.226562 240.257812 206.847656 254.097656 220.964844 268.4375 C 216.84375 272.785156 213.632812 276.167969 210.519531 279.449219 C 192.371094 261.304688 174.792969 243.734375 156.191406 225.140625 C 168.113281 211.765625 181.710938 199.433594 194.359375 186.3125 C 203.25 194.738281 211.582031 202.628906 220.945312 211.5 Z M 220.945312 211.5 " fill-opacity="1" fill-rule="nonzero"/></g><path fill="#0d2d52" d="M 347.9375 226.269531 C 346.960938 227.675781 345.980469 229.464844 344.652344 230.941406 C 338.460938 237.820312 332.175781 244.617188 325.097656 252.34375 C 320.171875 247.597656 316.644531 244.195312 312.511719 240.210938 C 317.023438 235.101562 321.003906 230.59375 326.109375 224.8125 C 320.800781 219.570312 315.785156 214.617188 309.9375 208.84375 C 301.761719 216.941406 294.609375 223.726562 287.808594 230.855469 C 281.183594 237.800781 274.921875 245.089844 267.792969 253.019531 C 262.574219 247.90625 259.03125 244.441406 255.160156 240.652344 C 274.046875 222.441406 291.996094 205.132812 309.609375 188.148438 C 321.609375 200.085938 334.601562 213.007812 347.9375 226.269531 Z M 347.9375 226.269531 " fill-opacity="1" fill-rule="nonzero"/><g clip-path="url(#4f73e51f5c)"><path fill="#0d2d52" d="M 196.183594 322.402344 C 182.582031 308.695312 169.847656 295.863281 156.175781 282.082031 C 164.09375 274.085938 172.167969 265.929688 181.183594 256.820312 C 185.199219 260.875 188.449219 264.160156 192.246094 267.996094 C 187.667969 273.335938 183.75 277.910156 178.917969 283.550781 C 184.394531 288.761719 189.484375 293.605469 195.316406 299.15625 C 209.582031 285.054688 223.40625 271.390625 238.730469 256.242188 C 242.136719 260.792969 244.960938 264.566406 248.699219 269.558594 C 231.859375 286.507812 214.3125 304.160156 196.183594 322.402344 Z M 196.183594 322.402344 " fill-opacity="1" fill-rule="nonzero"/></g><g clip-path="url(#23c51c5de1)"><path fill="#0d2d52" d="M 309.304688 323.148438 C 300.878906 313.773438 293.195312 305.222656 284.703125 295.777344 C 287.539062 292.8125 290.945312 289.25 294.5625 285.46875 C 300.234375 290.542969 304.757812 294.589844 309.382812 298.722656 C 315.082031 293.246094 320.148438 288.375 325.898438 282.84375 C 311.652344 268.339844 298.050781 254.488281 283.265625 239.433594 C 287.253906 235.960938 290.753906 232.914062 295.113281 229.117188 C 313.652344 245.867188 330.664062 263.960938 348.84375 282.382812 C 336.667969 296.980469 322.980469 309.097656 309.304688 323.148438 Z M 309.304688 323.148438 " fill-opacity="1" fill-rule="nonzero"/></g><path fill="#0d2d52" d="M 297.015625 258.339844 C 299.09375 261.25 301.84375 265.105469 305.4375 270.144531 C 293.277344 282.285156 280.324219 295.21875 265.835938 309.683594 C 262.203125 305.050781 259.285156 301.335938 256.191406 297.390625 C 269.222656 284.925781 282.246094 272.46875 297.015625 258.339844 Z M 297.015625 258.339844 " fill-opacity="1" fill-rule="nonzero"/><path fill="#0d2d52" d="M 226.992188 239.34375 C 230.441406 236.140625 233.902344 232.925781 238.148438 228.988281 C 252.230469 241.140625 264.601562 254.640625 277.898438 268.664062 C 274.089844 272.691406 270.710938 276.261719 267.335938 279.832031 C 253.851562 266.296875 241.058594 253.457031 226.992188 239.34375 Z M 226.992188 239.34375 " fill-opacity="1" fill-rule="nonzero"/><path fill="#0d2d52" d="M 239.277344 200.34375 C 242.523438 203.9375 245.460938 207.183594 249.457031 211.597656 C 236.207031 224.878906 223.117188 237.996094 209.234375 251.910156 C 205.199219 247.722656 201.945312 244.339844 198.242188 240.492188 C 211.808594 227.21875 224.902344 214.410156 239.277344 200.34375 Z M 239.277344 200.34375 " fill-opacity="1" fill-rule="nonzero"/><g fill="#ffffff" fill-opacity="1"><g transform="translate(498.444949, 224.860679)"><g><path d="M 124.765625 -12.90625 C 124.890625 -12.15625 124.984375 -11.429688 125.046875 -10.734375 C 125.109375 -10.035156 125.140625 -9.242188 125.140625 -8.359375 C 125.140625 -6.835938 124.695312 -5.441406 123.8125 -4.171875 C 123.4375 -3.546875 122.929688 -2.945312 122.296875 -2.375 C 121.660156 -1.800781 120.898438 -1.328125 120.015625 -0.953125 C 116.847656 0.816406 113.492188 1.453125 109.953125 0.953125 C 108.179688 0.441406 106.597656 -0.378906 105.203125 -1.515625 C 104.953125 -1.773438 104.765625 -1.9375 104.640625 -2 C 104.515625 -2.0625 104.390625 -2.21875 104.265625 -2.46875 C 104.128906 -2.59375 104 -2.75 103.875 -2.9375 C 103.75 -3.132812 103.5625 -3.296875 103.3125 -3.421875 C 102.675781 -4.054688 102.164062 -4.65625 101.78125 -5.21875 C 101.40625 -5.789062 101.03125 -6.394531 100.65625 -7.03125 C 100.394531 -7.65625 100.109375 -8.253906 99.796875 -8.828125 C 99.484375 -9.398438 99.132812 -10.003906 98.75 -10.640625 C 98.5 -11.140625 98.242188 -11.609375 97.984375 -12.046875 C 97.734375 -12.492188 97.546875 -12.972656 97.421875 -13.484375 C 96.910156 -14.617188 96.59375 -15.628906 96.46875 -16.515625 L 92.484375 -25.828125 C 83.742188 -25.828125 75.035156 -25.796875 66.359375 -25.734375 C 57.691406 -25.671875 48.992188 -25.703125 40.265625 -25.828125 L 36.265625 -16.515625 C 36.015625 -16.015625 35.859375 -15.507812 35.796875 -15 C 35.734375 -14.5 35.578125 -13.992188 35.328125 -13.484375 C 35.066406 -12.972656 34.84375 -12.492188 34.65625 -12.046875 C 34.46875 -11.609375 34.25 -11.140625 34 -10.640625 C 33.613281 -10.003906 33.257812 -9.398438 32.9375 -8.828125 C 32.625 -8.253906 32.28125 -7.65625 31.90625 -7.03125 C 31.65625 -6.394531 31.335938 -5.789062 30.953125 -5.21875 C 30.578125 -4.65625 30.070312 -4.054688 29.4375 -3.421875 C 29.1875 -3.296875 28.992188 -3.132812 28.859375 -2.9375 C 28.734375 -2.75 28.609375 -2.59375 28.484375 -2.46875 C 28.359375 -2.21875 28.234375 -2.0625 28.109375 -2 C 27.984375 -1.9375 27.789062 -1.773438 27.53125 -1.515625 C 26.144531 -0.378906 24.5625 0.441406 22.78125 0.953125 C 19.238281 1.453125 15.882812 0.816406 12.71875 -0.953125 C 11.832031 -1.328125 11.070312 -1.800781 10.4375 -2.375 C 9.8125 -2.945312 9.304688 -3.546875 8.921875 -4.171875 C 8.035156 -5.441406 7.59375 -6.835938 7.59375 -8.359375 C 7.59375 -9.242188 7.625 -10.035156 7.6875 -10.734375 C 7.75 -11.429688 7.84375 -12.15625 7.96875 -12.90625 C 8.226562 -14.050781 8.546875 -15.191406 8.921875 -16.328125 C 9.304688 -17.472656 9.5 -18.046875 9.5 -18.046875 L 49 -115.265625 L 50.140625 -118.3125 C 50.390625 -119.070312 50.703125 -119.765625 51.078125 -120.390625 C 51.460938 -121.023438 51.78125 -121.785156 52.03125 -122.671875 C 52.664062 -124.316406 53.363281 -125.773438 54.125 -127.046875 C 54.5 -127.804688 54.941406 -128.5 55.453125 -129.125 C 55.960938 -129.757812 56.46875 -130.394531 56.96875 -131.03125 C 57.726562 -132.039062 58.804688 -132.863281 60.203125 -133.5 C 61.972656 -134.132812 64.03125 -134.453125 66.375 -134.453125 C 68.71875 -134.453125 70.773438 -134.132812 72.546875 -133.5 C 73.941406 -132.863281 75.015625 -132.039062 75.765625 -131.03125 C 76.660156 -129.894531 77.613281 -128.566406 78.625 -127.046875 C 79.382812 -125.773438 80.078125 -124.316406 80.703125 -122.671875 C 80.960938 -121.785156 81.28125 -121.023438 81.65625 -120.390625 C 82.039062 -119.765625 82.359375 -119.070312 82.609375 -118.3125 L 83.75 -115.265625 L 123.25 -18.046875 C 123.25 -18.046875 123.4375 -17.472656 123.8125 -16.328125 C 124.195312 -15.191406 124.515625 -14.050781 124.765625 -12.90625 Z M 79.765625 -59.4375 C 78.117188 -63.113281 76.441406 -66.910156 74.734375 -70.828125 C 73.023438 -74.753906 71.21875 -78.742188 69.3125 -82.796875 C 68.8125 -83.941406 68.304688 -85.113281 67.796875 -86.3125 C 67.285156 -87.507812 66.78125 -88.679688 66.28125 -89.828125 C 65.894531 -88.679688 65.445312 -87.507812 64.9375 -86.3125 C 64.4375 -85.113281 63.929688 -83.941406 63.421875 -82.796875 C 61.523438 -78.742188 59.722656 -74.753906 58.015625 -70.828125 C 56.304688 -66.910156 54.628906 -63.113281 52.984375 -59.4375 L 49.5625 -51.078125 L 83.171875 -51.078125 Z M 79.765625 -59.4375 "/></g></g></g><g fill="#ffffff" fill-opacity="1"><g transform="translate(769.232385, 224.860679)"><g><path d="M 111.28125 -124.015625 C 112.039062 -117.929688 112.484375 -110.867188 112.609375 -102.828125 C 112.734375 -94.796875 112.640625 -86.695312 112.328125 -78.53125 C 112.015625 -70.363281 111.414062 -62.640625 110.53125 -55.359375 C 109.644531 -48.078125 108.566406 -42.222656 107.296875 -37.796875 C 106.410156 -35.128906 105.363281 -32.367188 104.15625 -29.515625 C 102.957031 -26.671875 101.660156 -24.113281 100.265625 -21.84375 C 98.242188 -18.425781 95.773438 -15.414062 92.859375 -12.8125 C 89.953125 -10.21875 86.753906 -8.003906 83.265625 -6.171875 C 79.785156 -4.335938 76.113281 -2.910156 72.25 -1.890625 C 68.394531 -0.878906 64.566406 -0.3125 60.765625 -0.1875 C 54.054688 0.0625 47.691406 -0.914062 41.671875 -3.125 C 35.660156 -5.34375 30.125 -8.859375 25.0625 -13.671875 C 21.269531 -17.347656 18.234375 -21.273438 15.953125 -25.453125 C 13.671875 -29.628906 11.894531 -34.023438 10.625 -38.640625 C 9.363281 -43.265625 8.570312 -48.046875 8.25 -52.984375 C 7.9375 -57.921875 7.78125 -62.984375 7.78125 -68.171875 C 7.78125 -70.578125 7.75 -73.582031 7.6875 -77.1875 C 7.625 -80.800781 7.59375 -84.535156 7.59375 -88.390625 C 7.59375 -92.253906 7.59375 -96.019531 7.59375 -99.6875 C 7.59375 -103.363281 7.65625 -106.46875 7.78125 -109 C 7.78125 -110.644531 7.78125 -112.445312 7.78125 -114.40625 C 7.78125 -116.375 7.875 -118.335938 8.0625 -120.296875 C 8.257812 -122.265625 8.609375 -124.164062 9.109375 -126 C 9.617188 -127.832031 10.378906 -129.507812 11.390625 -131.03125 C 12.535156 -132.675781 14.117188 -133.878906 16.140625 -134.640625 C 18.171875 -135.398438 20.289062 -135.78125 22.5 -135.78125 C 24.71875 -135.78125 26.835938 -135.335938 28.859375 -134.453125 C 30.890625 -133.566406 32.535156 -132.300781 33.796875 -130.65625 C 34.429688 -129.644531 34.875 -128.628906 35.125 -127.609375 C 35.382812 -126.597656 35.578125 -125.460938 35.703125 -124.203125 C 35.953125 -120.023438 36.109375 -115.273438 36.171875 -109.953125 C 36.234375 -104.640625 36.234375 -99.484375 36.171875 -94.484375 C 36.109375 -89.484375 36.015625 -84.890625 35.890625 -80.703125 C 35.765625 -76.523438 35.703125 -73.425781 35.703125 -71.40625 C 35.703125 -63.8125 36.082031 -56.941406 36.84375 -50.796875 C 37.601562 -44.660156 39.375 -39.566406 42.15625 -35.515625 C 44.6875 -31.835938 47.660156 -29.492188 51.078125 -28.484375 C 54.503906 -27.472656 57.925781 -27.15625 61.34375 -27.53125 C 64.507812 -27.914062 67.703125 -29.085938 70.921875 -31.046875 C 74.148438 -33.015625 76.71875 -35.894531 78.625 -39.6875 C 79.382812 -41.082031 80.015625 -42.664062 80.515625 -44.4375 C 81.023438 -46.207031 81.40625 -47.851562 81.65625 -49.375 C 82.164062 -54.1875 82.609375 -59.785156 82.984375 -66.171875 C 83.367188 -72.566406 83.6875 -79.117188 83.9375 -85.828125 C 84.1875 -92.546875 84.3125 -99.128906 84.3125 -105.578125 C 84.3125 -112.035156 84.25 -117.863281 84.125 -123.0625 C 84.382812 -125.34375 85.082031 -127.429688 86.21875 -129.328125 C 87.226562 -130.972656 88.679688 -132.425781 90.578125 -133.6875 C 92.484375 -134.957031 95.082031 -135.59375 98.375 -135.59375 C 101.03125 -135.46875 103.179688 -134.800781 104.828125 -133.59375 C 106.472656 -132.394531 107.800781 -131.097656 108.8125 -129.703125 C 109.957031 -128.054688 110.78125 -126.160156 111.28125 -124.015625 Z M 111.28125 -124.015625 "/></g></g></g><g fill="#ffffff" fill-opacity="1"><g transform="translate(648.682718, 224.860679)"><g><path d="M 95.328125 -14.4375 C 95.585938 -13.800781 95.71875 -12.878906 95.71875 -11.671875 C 95.71875 -10.472656 95.71875 -9.492188 95.71875 -8.734375 C 95.71875 -7.722656 95.523438 -6.773438 95.140625 -5.890625 C 94.765625 -5.003906 94.257812 -4.179688 93.625 -3.421875 C 92.488281 -1.898438 90.84375 -0.757812 88.6875 0 C 85.644531 1.007812 82.796875 1.515625 80.140625 1.515625 C 78.742188 1.640625 77.285156 1.703125 75.765625 1.703125 C 74.253906 1.703125 72.738281 1.832031 71.21875 2.09375 L 70.453125 2.09375 C 60.703125 2.21875 50.640625 2.21875 40.265625 2.09375 C 37.734375 1.96875 34.882812 2 31.71875 2.1875 C 28.550781 2.375 25.445312 2.304688 22.40625 1.984375 C 19.363281 1.671875 16.609375 0.914062 14.140625 -0.28125 C 11.671875 -1.488281 9.929688 -3.421875 8.921875 -6.078125 C 8.671875 -6.710938 8.484375 -7.3125 8.359375 -7.875 C 8.234375 -8.445312 8.171875 -9.050781 8.171875 -9.6875 C 7.660156 -13.988281 7.46875 -18.226562 7.59375 -22.40625 C 7.71875 -26.582031 7.78125 -30.695312 7.78125 -34.75 L 8.171875 -62.296875 L 8.171875 -87.734375 C 8.171875 -92.296875 8.203125 -96.347656 8.265625 -99.890625 C 8.328125 -103.429688 8.421875 -107.359375 8.546875 -111.671875 L 8.546875 -112.609375 C 8.671875 -113.878906 8.765625 -115.144531 8.828125 -116.40625 C 8.890625 -117.675781 8.921875 -118.941406 8.921875 -120.203125 C 9.179688 -123.117188 9.878906 -125.585938 11.015625 -127.609375 C 11.773438 -129.515625 13.101562 -131.035156 15 -132.171875 C 16.644531 -133.316406 18.609375 -133.890625 20.890625 -133.890625 C 21.773438 -133.890625 22.628906 -133.851562 23.453125 -133.78125 C 24.273438 -133.71875 25.066406 -133.625 25.828125 -133.5 C 26.585938 -133.375 27.316406 -133.117188 28.015625 -132.734375 C 28.710938 -132.359375 29.4375 -131.851562 30.1875 -131.21875 C 30.945312 -130.332031 31.644531 -129.257812 32.28125 -128 C 32.789062 -126.601562 33.109375 -125.207031 33.234375 -123.8125 C 33.359375 -122.925781 33.484375 -122.101562 33.609375 -121.34375 C 33.734375 -120.582031 33.796875 -119.828125 33.796875 -119.078125 C 33.546875 -118.316406 33.421875 -117.554688 33.421875 -116.796875 C 33.421875 -116.035156 33.421875 -115.335938 33.421875 -114.703125 L 33.421875 -111.28125 L 32.65625 -21.84375 L 70.265625 -21.453125 L 79.1875 -21.453125 C 79.945312 -21.453125 80.769531 -21.421875 81.65625 -21.359375 C 82.539062 -21.296875 83.425781 -21.203125 84.3125 -21.078125 C 85.332031 -20.953125 86.21875 -20.828125 86.96875 -20.703125 C 87.726562 -20.578125 88.488281 -20.382812 89.25 -20.125 C 90.644531 -19.75 91.785156 -19.117188 92.671875 -18.234375 C 94.066406 -16.960938 94.953125 -15.695312 95.328125 -14.4375 Z M 95.328125 -14.4375 "/></g></g></g><g fill="#ffffff" fill-opacity="1"><g transform="translate(498.444949, 352.997236)"><g><path d="M 39.90625 0 L 33.421875 -16.5625 L 12.546875 -16.5625 L 6.125 0 L 0 0 L 20.59375 -52.296875 L 25.6875 -52.296875 L 46.171875 0 Z M 31.53125 -22.015625 L 25.46875 -38.15625 C 24.6875 -40.195312 23.878906 -42.703125 23.046875 -45.671875 C 22.523438 -43.390625 21.78125 -40.882812 20.8125 -38.15625 L 14.671875 -22.015625 Z M 31.53125 -22.015625 "/></g></g></g><g fill="#ffffff" fill-opacity="1"><g transform="translate(544.614918, 352.997236)"><g><path d="M 31.453125 -10.65625 C 31.453125 -7.019531 30.097656 -4.210938 27.390625 -2.234375 C 24.691406 -0.265625 20.894531 0.71875 16 0.71875 C 10.820312 0.71875 6.785156 -0.101562 3.890625 -1.75 L 3.890625 -7.234375 C 5.765625 -6.285156 7.773438 -5.535156 9.921875 -4.984375 C 12.066406 -4.441406 14.140625 -4.171875 16.140625 -4.171875 C 19.222656 -4.171875 21.597656 -4.660156 23.265625 -5.640625 C 24.929688 -6.628906 25.765625 -8.132812 25.765625 -10.15625 C 25.765625 -11.675781 25.101562 -12.972656 23.78125 -14.046875 C 22.46875 -15.128906 19.894531 -16.410156 16.0625 -17.890625 C 12.4375 -19.242188 9.851562 -20.421875 8.3125 -21.421875 C 6.78125 -22.429688 5.640625 -23.578125 4.890625 -24.859375 C 4.148438 -26.148438 3.78125 -27.6875 3.78125 -29.46875 C 3.78125 -32.644531 5.070312 -35.15625 7.65625 -37 C 10.25 -38.84375 13.800781 -39.765625 18.3125 -39.765625 C 22.519531 -39.765625 26.628906 -38.910156 30.640625 -37.203125 L 28.53125 -32.390625 C 24.613281 -34.003906 21.066406 -34.8125 17.890625 -34.8125 C 15.085938 -34.8125 12.972656 -34.367188 11.546875 -33.484375 C 10.117188 -32.609375 9.40625 -31.398438 9.40625 -29.859375 C 9.40625 -28.816406 9.671875 -27.925781 10.203125 -27.1875 C 10.742188 -26.445312 11.609375 -25.742188 12.796875 -25.078125 C 13.984375 -24.410156 16.257812 -23.453125 19.625 -22.203125 C 24.257812 -20.515625 27.390625 -18.8125 29.015625 -17.09375 C 30.640625 -15.382812 31.453125 -13.238281 31.453125 -10.65625 Z M 31.453125 -10.65625 "/></g></g></g><g fill="#ffffff" fill-opacity="1"><g transform="translate(579.420526, 352.997236)"><g><path d="M 31.453125 -10.65625 C 31.453125 -7.019531 30.097656 -4.210938 27.390625 -2.234375 C 24.691406 -0.265625 20.894531 0.71875 16 0.71875 C 10.820312 0.71875 6.785156 -0.101562 3.890625 -1.75 L 3.890625 -7.234375 C 5.765625 -6.285156 7.773438 -5.535156 9.921875 -4.984375 C 12.066406 -4.441406 14.140625 -4.171875 16.140625 -4.171875 C 19.222656 -4.171875 21.597656 -4.660156 23.265625 -5.640625 C 24.929688 -6.628906 25.765625 -8.132812 25.765625 -10.15625 C 25.765625 -11.675781 25.101562 -12.972656 23.78125 -14.046875 C 22.46875 -15.128906 19.894531 -16.410156 16.0625 -17.890625 C 12.4375 -19.242188 9.851562 -20.421875 8.3125 -21.421875 C 6.78125 -22.429688 5.640625 -23.578125 4.890625 -24.859375 C 4.148438 -26.148438 3.78125 -27.6875 3.78125 -29.46875 C 3.78125 -32.644531 5.070312 -35.15625 7.65625 -37 C 10.25 -38.84375 13.800781 -39.765625 18.3125 -39.765625 C 22.519531 -39.765625 26.628906 -38.910156 30.640625 -37.203125 L 28.53125 -32.390625 C 24.613281 -34.003906 21.066406 -34.8125 17.890625 -34.8125 C 15.085938 -34.8125 12.972656 -34.367188 11.546875 -33.484375 C 10.117188 -32.609375 9.40625 -31.398438 9.40625 -29.859375 C 9.40625 -28.816406 9.671875 -27.925781 10.203125 -27.1875 C 10.742188 -26.445312 11.609375 -25.742188 12.796875 -25.078125 C 13.984375 -24.410156 16.257812 -23.453125 19.625 -22.203125 C 24.257812 -20.515625 27.390625 -18.8125 29.015625 -17.09375 C 30.640625 -15.382812 31.453125 -13.238281 31.453125 -10.65625 Z M 31.453125 -10.65625 "/></g></g></g><g fill="#ffffff" fill-opacity="1"><g transform="translate(614.226134, 352.997236)"><g><path d="M 12.1875 0 L 6.265625 0 L 6.265625 -39.046875 L 12.1875 -39.046875 Z M 5.765625 -49.625 C 5.765625 -50.976562 6.097656 -51.96875 6.765625 -52.59375 C 7.429688 -53.226562 8.265625 -53.546875 9.265625 -53.546875 C 10.210938 -53.546875 11.03125 -53.222656 11.71875 -52.578125 C 12.40625 -51.941406 12.75 -50.957031 12.75 -49.625 C 12.75 -48.300781 12.40625 -47.3125 11.71875 -46.65625 C 11.03125 -46 10.210938 -45.671875 9.265625 -45.671875 C 8.265625 -45.671875 7.429688 -46 6.765625 -46.65625 C 6.097656 -47.3125 5.765625 -48.300781 5.765625 -49.625 Z M 5.765625 -49.625 "/></g></g></g><g fill="#ffffff" fill-opacity="1"><g transform="translate(632.679871, 352.997236)"><g><path d="M 31.453125 -10.65625 C 31.453125 -7.019531 30.097656 -4.210938 27.390625 -2.234375 C 24.691406 -0.265625 20.894531 0.71875 16 0.71875 C 10.820312 0.71875 6.785156 -0.101562 3.890625 -1.75 L 3.890625 -7.234375 C 5.765625 -6.285156 7.773438 -5.535156 9.921875 -4.984375 C 12.066406 -4.441406 14.140625 -4.171875 16.140625 -4.171875 C 19.222656 -4.171875 21.597656 -4.660156 23.265625 -5.640625 C 24.929688 -6.628906 25.765625 -8.132812 25.765625 -10.15625 C 25.765625 -11.675781 25.101562 -12.972656 23.78125 -14.046875 C 22.46875 -15.128906 19.894531 -16.410156 16.0625 -17.890625 C 12.4375 -19.242188 9.851562 -20.421875 8.3125 -21.421875 C 6.78125 -22.429688 5.640625 -23.578125 4.890625 -24.859375 C 4.148438 -26.148438 3.78125 -27.6875 3.78125 -29.46875 C 3.78125 -32.644531 5.070312 -35.15625 7.65625 -37 C 10.25 -38.84375 13.800781 -39.765625 18.3125 -39.765625 C 22.519531 -39.765625 26.628906 -38.910156 30.640625 -37.203125 L 28.53125 -32.390625 C 24.613281 -34.003906 21.066406 -34.8125 17.890625 -34.8125 C 15.085938 -34.8125 12.972656 -34.367188 11.546875 -33.484375 C 10.117188 -32.609375 9.40625 -31.398438 9.40625 -29.859375 C 9.40625 -28.816406 9.671875 -27.925781 10.203125 -27.1875 C 10.742188 -26.445312 11.609375 -25.742188 12.796875 -25.078125 C 13.984375 -24.410156 16.257812 -23.453125 19.625 -22.203125 C 24.257812 -20.515625 27.390625 -18.8125 29.015625 -17.09375 C 30.640625 -15.382812 31.453125 -13.238281 31.453125 -10.65625 Z M 31.453125 -10.65625 "/></g></g></g><g fill="#ffffff" fill-opacity="1"><g transform="translate(667.485479, 352.997236)"><g><path d="M 18.890625 -4.171875 C 19.929688 -4.171875 20.9375 -4.242188 21.90625 -4.390625 C 22.882812 -4.546875 23.660156 -4.707031 24.234375 -4.875 L 24.234375 -0.359375 C 23.585938 -0.046875 22.640625 0.207031 21.390625 0.40625 C 20.148438 0.613281 19.03125 0.71875 18.03125 0.71875 C 10.476562 0.71875 6.703125 -3.257812 6.703125 -11.21875 L 6.703125 -34.453125 L 1.109375 -34.453125 L 1.109375 -37.296875 L 6.703125 -39.765625 L 9.1875 -48.09375 L 12.609375 -48.09375 L 12.609375 -39.046875 L 23.9375 -39.046875 L 23.9375 -34.453125 L 12.609375 -34.453125 L 12.609375 -11.46875 C 12.609375 -9.125 13.164062 -7.320312 14.28125 -6.0625 C 15.40625 -4.800781 16.941406 -4.171875 18.890625 -4.171875 Z M 18.890625 -4.171875 "/></g></g></g><g fill="#ffffff" fill-opacity="1"><g transform="translate(693.242343, 352.997236)"><g><path d="M 12.1875 0 L 6.265625 0 L 6.265625 -39.046875 L 12.1875 -39.046875 Z M 5.765625 -49.625 C 5.765625 -50.976562 6.097656 -51.96875 6.765625 -52.59375 C 7.429688 -53.226562 8.265625 -53.546875 9.265625 -53.546875 C 10.210938 -53.546875 11.03125 -53.222656 11.71875 -52.578125 C 12.40625 -51.941406 12.75 -50.957031 12.75 -49.625 C 12.75 -48.300781 12.40625 -47.3125 11.71875 -46.65625 C 11.03125 -46 10.210938 -45.671875 9.265625 -45.671875 C 8.265625 -45.671875 7.429688 -46 6.765625 -46.65625 C 6.097656 -47.3125 5.765625 -48.300781 5.765625 -49.625 Z M 5.765625 -49.625 "/></g></g></g><g fill="#ffffff" fill-opacity="1"><g transform="translate(711.696092, 352.997236)"><g><path d="M 14.828125 0 L 0 -39.046875 L 6.34375 -39.046875 L 14.75 -15.890625 C 16.644531 -10.472656 17.757812 -6.957031 18.09375 -5.34375 L 18.390625 -5.34375 C 18.648438 -6.601562 19.472656 -9.207031 20.859375 -13.15625 C 22.242188 -17.113281 25.363281 -25.742188 30.21875 -39.046875 L 36.5625 -39.046875 L 21.734375 0 Z M 14.828125 0 "/></g></g></g><g fill="#ffffff" fill-opacity="1"><g transform="translate(748.247306, 352.997236)"><g><path d="M 22.765625 0.71875 C 16.992188 0.71875 12.4375 -1.035156 9.09375 -4.546875 C 5.757812 -8.066406 4.09375 -12.953125 4.09375 -19.203125 C 4.09375 -25.492188 5.640625 -30.492188 8.734375 -34.203125 C 11.835938 -37.910156 16.003906 -39.765625 21.234375 -39.765625 C 26.128906 -39.765625 30 -38.15625 32.84375 -34.9375 C 35.695312 -31.71875 37.125 -27.472656 37.125 -22.203125 L 37.125 -18.453125 L 10.21875 -18.453125 C 10.34375 -13.867188 11.503906 -10.390625 13.703125 -8.015625 C 15.898438 -5.640625 18.992188 -4.453125 22.984375 -4.453125 C 27.179688 -4.453125 31.335938 -5.332031 35.453125 -7.09375 L 35.453125 -1.8125 C 33.359375 -0.914062 31.378906 -0.269531 29.515625 0.125 C 27.648438 0.519531 25.398438 0.71875 22.765625 0.71875 Z M 21.15625 -34.8125 C 18.019531 -34.8125 15.519531 -33.789062 13.65625 -31.75 C 11.789062 -29.707031 10.695312 -26.878906 10.375 -23.265625 L 30.78125 -23.265625 C 30.78125 -26.992188 29.945312 -29.847656 28.28125 -31.828125 C 26.625 -33.816406 24.25 -34.8125 21.15625 -34.8125 Z M 21.15625 -34.8125 "/></g></g></g><g fill="#ffffff" fill-opacity="1"><g transform="translate(789.180398, 352.997236)"><g/></g></g><g fill="#ffffff" fill-opacity="1"><g transform="translate(808.132885, 352.997236)"><g><path d="M 7.15625 0 L 7.15625 -52.09375 L 13.21875 -52.09375 L 13.21875 -5.484375 L 36.203125 -5.484375 L 36.203125 0 Z M 7.15625 0 "/></g></g></g><g fill="#ffffff" fill-opacity="1"><g transform="translate(846.002241, 352.997236)"><g><path d="M 22.765625 0.71875 C 16.992188 0.71875 12.4375 -1.035156 9.09375 -4.546875 C 5.757812 -8.066406 4.09375 -12.953125 4.09375 -19.203125 C 4.09375 -25.492188 5.640625 -30.492188 8.734375 -34.203125 C 11.835938 -37.910156 16.003906 -39.765625 21.234375 -39.765625 C 26.128906 -39.765625 30 -38.15625 32.84375 -34.9375 C 35.695312 -31.71875 37.125 -27.472656 37.125 -22.203125 L 37.125 -18.453125 L 10.21875 -18.453125 C 10.34375 -13.867188 11.503906 -10.390625 13.703125 -8.015625 C 15.898438 -5.640625 18.992188 -4.453125 22.984375 -4.453125 C 27.179688 -4.453125 31.335938 -5.332031 35.453125 -7.09375 L 35.453125 -1.8125 C 33.359375 -0.914062 31.378906 -0.269531 29.515625 0.125 C 27.648438 0.519531 25.398438 0.71875 22.765625 0.71875 Z M 21.15625 -34.8125 C 18.019531 -34.8125 15.519531 -33.789062 13.65625 -31.75 C 11.789062 -29.707031 10.695312 -26.878906 10.375 -23.265625 L 30.78125 -23.265625 C 30.78125 -26.992188 29.945312 -29.847656 28.28125 -31.828125 C 26.625 -33.816406 24.25 -34.8125 21.15625 -34.8125 Z M 21.15625 -34.8125 "/></g></g></g><g fill="#ffffff" fill-opacity="1"><g transform="translate(886.935333, 352.997236)"><g><path d="M 30.28125 0 L 29.109375 -5.5625 L 28.828125 -5.5625 C 26.878906 -3.113281 24.9375 -1.453125 23 -0.578125 C 21.0625 0.285156 18.644531 0.71875 15.75 0.71875 C 11.875 0.71875 8.835938 -0.273438 6.640625 -2.265625 C 4.441406 -4.265625 3.34375 -7.109375 3.34375 -10.796875 C 3.34375 -18.679688 9.648438 -22.8125 22.265625 -23.1875 L 28.890625 -23.40625 L 28.890625 -25.828125 C 28.890625 -28.890625 28.226562 -31.148438 26.90625 -32.609375 C 25.59375 -34.078125 23.488281 -34.8125 20.59375 -34.8125 C 17.34375 -34.8125 13.660156 -33.8125 9.546875 -31.8125 L 7.734375 -36.34375 C 9.660156 -37.382812 11.769531 -38.203125 14.0625 -38.796875 C 16.351562 -39.390625 18.648438 -39.6875 20.953125 -39.6875 C 25.609375 -39.6875 29.054688 -38.648438 31.296875 -36.578125 C 33.546875 -34.515625 34.671875 -31.207031 34.671875 -26.65625 L 34.671875 0 Z M 16.921875 -4.171875 C 20.609375 -4.171875 23.5 -5.175781 25.59375 -7.1875 C 27.695312 -9.207031 28.75 -12.035156 28.75 -15.671875 L 28.75 -19.203125 L 22.84375 -18.953125 C 18.132812 -18.785156 14.738281 -18.054688 12.65625 -16.765625 C 10.582031 -15.472656 9.546875 -13.457031 9.546875 -10.71875 C 9.546875 -8.582031 10.191406 -6.957031 11.484375 -5.84375 C 12.785156 -4.726562 14.597656 -4.171875 16.921875 -4.171875 Z M 16.921875 -4.171875 "/></g></g></g><g fill="#ffffff" fill-opacity="1"><g transform="translate(927.512186, 352.997236)"><g><path d="M 24.078125 -39.765625 C 25.816406 -39.765625 27.375 -39.617188 28.75 -39.328125 L 27.9375 -33.84375 C 26.320312 -34.195312 24.894531 -34.375 23.65625 -34.375 C 20.5 -34.375 17.796875 -33.09375 15.546875 -30.53125 C 13.304688 -27.96875 12.1875 -24.773438 12.1875 -20.953125 L 12.1875 0 L 6.265625 0 L 6.265625 -39.046875 L 11.15625 -39.046875 L 11.828125 -31.8125 L 12.109375 -31.8125 C 13.554688 -34.351562 15.300781 -36.3125 17.34375 -37.6875 C 19.394531 -39.070312 21.640625 -39.765625 24.078125 -39.765625 Z M 24.078125 -39.765625 "/></g></g></g><g fill="#ffffff" fill-opacity="1"><g transform="translate(957.294644, 352.997236)"><g><path d="M 33 0 L 33 -25.265625 C 33 -28.441406 32.269531 -30.8125 30.8125 -32.375 C 29.363281 -33.945312 27.097656 -34.734375 24.015625 -34.734375 C 19.929688 -34.734375 16.9375 -33.628906 15.03125 -31.421875 C 13.132812 -29.210938 12.1875 -25.566406 12.1875 -20.484375 L 12.1875 0 L 6.265625 0 L 6.265625 -39.046875 L 11.078125 -39.046875 L 12.046875 -33.703125 L 12.328125 -33.703125 C 13.535156 -35.628906 15.234375 -37.117188 17.421875 -38.171875 C 19.609375 -39.234375 22.046875 -39.765625 24.734375 -39.765625 C 29.429688 -39.765625 32.96875 -38.628906 35.34375 -36.359375 C 37.71875 -34.085938 38.90625 -30.457031 38.90625 -25.46875 L 38.90625 0 Z M 33 0 "/></g></g></g><g fill="#ffffff" fill-opacity="1"><g transform="translate(1002.075256, 352.997236)"><g><path d="M 12.1875 0 L 6.265625 0 L 6.265625 -39.046875 L 12.1875 -39.046875 Z M 5.765625 -49.625 C 5.765625 -50.976562 6.097656 -51.96875 6.765625 -52.59375 C 7.429688 -53.226562 8.265625 -53.546875 9.265625 -53.546875 C 10.210938 -53.546875 11.03125 -53.222656 11.71875 -52.578125 C 12.40625 -51.941406 12.75 -50.957031 12.75 -49.625 C 12.75 -48.300781 12.40625 -47.3125 11.71875 -46.65625 C 11.03125 -46 10.210938 -45.671875 9.265625 -45.671875 C 8.265625 -45.671875 7.429688 -46 6.765625 -46.65625 C 6.097656 -47.3125 5.765625 -48.300781 5.765625 -49.625 Z M 5.765625 -49.625 "/></g></g></g><g fill="#ffffff" fill-opacity="1"><g transform="translate(1020.529006, 352.997236)"><g><path d="M 33 0 L 33 -25.265625 C 33 -28.441406 32.269531 -30.8125 30.8125 -32.375 C 29.363281 -33.945312 27.097656 -34.734375 24.015625 -34.734375 C 19.929688 -34.734375 16.9375 -33.628906 15.03125 -31.421875 C 13.132812 -29.210938 12.1875 -25.566406 12.1875 -20.484375 L 12.1875 0 L 6.265625 0 L 6.265625 -39.046875 L 11.078125 -39.046875 L 12.046875 -33.703125 L 12.328125 -33.703125 C 13.535156 -35.628906 15.234375 -37.117188 17.421875 -38.171875 C 19.609375 -39.234375 22.046875 -39.765625 24.734375 -39.765625 C 29.429688 -39.765625 32.96875 -38.628906 35.34375 -36.359375 C 37.71875 -34.085938 38.90625 -30.457031 38.90625 -25.46875 L 38.90625 0 Z M 33 0 "/></g></g></g><g fill="#ffffff" fill-opacity="1"><g transform="translate(1065.309618, 352.997236)"><g><path d="M 38.234375 -39.046875 L 38.234375 -35.3125 L 31 -34.453125 C 31.664062 -33.617188 32.257812 -32.53125 32.78125 -31.1875 C 33.300781 -29.851562 33.5625 -28.34375 33.5625 -26.65625 C 33.5625 -22.832031 32.253906 -19.78125 29.640625 -17.5 C 27.023438 -15.21875 23.441406 -14.078125 18.890625 -14.078125 C 17.722656 -14.078125 16.628906 -14.171875 15.609375 -14.359375 C 13.085938 -13.023438 11.828125 -11.347656 11.828125 -9.328125 C 11.828125 -8.265625 12.265625 -7.476562 13.140625 -6.96875 C 14.023438 -6.457031 15.535156 -6.203125 17.671875 -6.203125 L 24.578125 -6.203125 C 28.804688 -6.203125 32.054688 -5.3125 34.328125 -3.53125 C 36.597656 -1.75 37.734375 0.835938 37.734375 4.234375 C 37.734375 8.554688 36 11.851562 32.53125 14.125 C 29.0625 16.394531 24 17.53125 17.34375 17.53125 C 12.238281 17.53125 8.300781 16.578125 5.53125 14.671875 C 2.769531 12.773438 1.390625 10.09375 1.390625 6.625 C 1.390625 4.25 2.148438 2.191406 3.671875 0.453125 C 5.191406 -1.273438 7.328125 -2.445312 10.078125 -3.0625 C 9.085938 -3.507812 8.253906 -4.207031 7.578125 -5.15625 C 6.898438 -6.113281 6.5625 -7.222656 6.5625 -8.484375 C 6.5625 -9.910156 6.941406 -11.15625 7.703125 -12.21875 C 8.460938 -13.289062 9.660156 -14.328125 11.296875 -15.328125 C 9.273438 -16.148438 7.628906 -17.554688 6.359375 -19.546875 C 5.085938 -21.546875 4.453125 -23.832031 4.453125 -26.40625 C 4.453125 -30.675781 5.734375 -33.96875 8.296875 -36.28125 C 10.867188 -38.601562 14.503906 -39.765625 19.203125 -39.765625 C 21.242188 -39.765625 23.085938 -39.523438 24.734375 -39.046875 Z M 7.09375 6.5625 C 7.09375 8.675781 7.984375 10.273438 9.765625 11.359375 C 11.546875 12.453125 14.097656 13 17.421875 13 C 22.390625 13 26.066406 12.253906 28.453125 10.765625 C 30.835938 9.285156 32.03125 7.273438 32.03125 4.734375 C 32.03125 2.617188 31.375 1.148438 30.0625 0.328125 C 28.757812 -0.484375 26.304688 -0.890625 22.703125 -0.890625 L 15.609375 -0.890625 C 12.921875 -0.890625 10.828125 -0.25 9.328125 1.03125 C 7.835938 2.3125 7.09375 4.15625 7.09375 6.5625 Z M 10.296875 -26.546875 C 10.296875 -23.816406 11.066406 -21.75 12.609375 -20.34375 C 14.148438 -18.945312 16.300781 -18.25 19.0625 -18.25 C 24.832031 -18.25 27.71875 -21.050781 27.71875 -26.65625 C 27.71875 -32.519531 24.796875 -35.453125 18.953125 -35.453125 C 16.171875 -35.453125 14.03125 -34.703125 12.53125 -33.203125 C 11.039062 -31.710938 10.296875 -29.492188 10.296875 -26.546875 Z M 10.296875 -26.546875 "/></g></g></g><g fill="#ffffff" fill-opacity="1"><g transform="translate(1105.28083, 352.997236)"><g/></g></g><g fill="#ffffff" fill-opacity="1"><g transform="translate(1124.233341, 352.997236)"><g><path d="M 46.5 -52.09375 L 46.5 -18.390625 C 46.5 -12.453125 44.703125 -7.78125 41.109375 -4.375 C 37.523438 -0.976562 32.597656 0.71875 26.328125 0.71875 C 20.054688 0.71875 15.203125 -0.988281 11.765625 -4.40625 C 8.335938 -7.832031 6.625 -12.539062 6.625 -18.53125 L 6.625 -52.09375 L 12.6875 -52.09375 L 12.6875 -18.09375 C 12.6875 -13.75 13.875 -10.410156 16.25 -8.078125 C 18.625 -5.753906 22.113281 -4.59375 26.71875 -4.59375 C 31.113281 -4.59375 34.5 -5.757812 36.875 -8.09375 C 39.25 -10.4375 40.4375 -13.796875 40.4375 -18.171875 L 40.4375 -52.09375 Z M 46.5 -52.09375 "/></g></g></g><g fill="#ffffff" fill-opacity="1"><g transform="translate(1177.350186, 352.997236)"><g><path d="M 33 0 L 33 -25.265625 C 33 -28.441406 32.269531 -30.8125 30.8125 -32.375 C 29.363281 -33.945312 27.097656 -34.734375 24.015625 -34.734375 C 19.929688 -34.734375 16.9375 -33.628906 15.03125 -31.421875 C 13.132812 -29.210938 12.1875 -25.566406 12.1875 -20.484375 L 12.1875 0 L 6.265625 0 L 6.265625 -39.046875 L 11.078125 -39.046875 L 12.046875 -33.703125 L 12.328125 -33.703125 C 13.535156 -35.628906 15.234375 -37.117188 17.421875 -38.171875 C 19.609375 -39.234375 22.046875 -39.765625 24.734375 -39.765625 C 29.429688 -39.765625 32.96875 -38.628906 35.34375 -36.359375 C 37.71875 -34.085938 38.90625 -30.457031 38.90625 -25.46875 L 38.90625 0 Z M 33 0 "/></g></g></g><g fill="#ffffff" fill-opacity="1"><g transform="translate(1222.130799, 352.997236)"><g><path d="M 12.1875 0 L 6.265625 0 L 6.265625 -39.046875 L 12.1875 -39.046875 Z M 5.765625 -49.625 C 5.765625 -50.976562 6.097656 -51.96875 6.765625 -52.59375 C 7.429688 -53.226562 8.265625 -53.546875 9.265625 -53.546875 C 10.210938 -53.546875 11.03125 -53.222656 11.71875 -52.578125 C 12.40625 -51.941406 12.75 -50.957031 12.75 -49.625 C 12.75 -48.300781 12.40625 -47.3125 11.71875 -46.65625 C 11.03125 -46 10.210938 -45.671875 9.265625 -45.671875 C 8.265625 -45.671875 7.429688 -46 6.765625 -46.65625 C 6.097656 -47.3125 5.765625 -48.300781 5.765625 -49.625 Z M 5.765625 -49.625 "/></g></g></g><g fill="#ffffff" fill-opacity="1"><g transform="translate(1240.584548, 352.997236)"><g><path d="M 18.890625 -4.171875 C 19.929688 -4.171875 20.9375 -4.242188 21.90625 -4.390625 C 22.882812 -4.546875 23.660156 -4.707031 24.234375 -4.875 L 24.234375 -0.359375 C 23.585938 -0.046875 22.640625 0.207031 21.390625 0.40625 C 20.148438 0.613281 19.03125 0.71875 18.03125 0.71875 C 10.476562 0.71875 6.703125 -3.257812 6.703125 -11.21875 L 6.703125 -34.453125 L 1.109375 -34.453125 L 1.109375 -37.296875 L 6.703125 -39.765625 L 9.1875 -48.09375 L 12.609375 -48.09375 L 12.609375 -39.046875 L 23.9375 -39.046875 L 23.9375 -34.453125 L 12.609375 -34.453125 L 12.609375 -11.46875 C 12.609375 -9.125 13.164062 -7.320312 14.28125 -6.0625 C 15.40625 -4.800781 16.941406 -4.171875 18.890625 -4.171875 Z M 18.890625 -4.171875 "/></g></g></g><g fill="#ffffff" fill-opacity="1"><g transform="translate(1266.341412, 352.997236)"><g><path d="M 31.453125 -10.65625 C 31.453125 -7.019531 30.097656 -4.210938 27.390625 -2.234375 C 24.691406 -0.265625 20.894531 0.71875 16 0.71875 C 10.820312 0.71875 6.785156 -0.101562 3.890625 -1.75 L 3.890625 -7.234375 C 5.765625 -6.285156 7.773438 -5.535156 9.921875 -4.984375 C 12.066406 -4.441406 14.140625 -4.171875 16.140625 -4.171875 C 19.222656 -4.171875 21.597656 -4.660156 23.265625 -5.640625 C 24.929688 -6.628906 25.765625 -8.132812 25.765625 -10.15625 C 25.765625 -11.675781 25.101562 -12.972656 23.78125 -14.046875 C 22.46875 -15.128906 19.894531 -16.410156 16.0625 -17.890625 C 12.4375 -19.242188 9.851562 -20.421875 8.3125 -21.421875 C 6.78125 -22.429688 5.640625 -23.578125 4.890625 -24.859375 C 4.148438 -26.148438 3.78125 -27.6875 3.78125 -29.46875 C 3.78125 -32.644531 5.070312 -35.15625 7.65625 -37 C 10.25 -38.84375 13.800781 -39.765625 18.3125 -39.765625 C 22.519531 -39.765625 26.628906 -38.910156 30.640625 -37.203125 L 28.53125 -32.390625 C 24.613281 -34.003906 21.066406 -34.8125 17.890625 -34.8125 C 15.085938 -34.8125 12.972656 -34.367188 11.546875 -33.484375 C 10.117188 -32.609375 9.40625 -31.398438 9.40625 -29.859375 C 9.40625 -28.816406 9.671875 -27.925781 10.203125 -27.1875 C 10.742188 -26.445312 11.609375 -25.742188 12.796875 -25.078125 C 13.984375 -24.410156 16.257812 -23.453125 19.625 -22.203125 C 24.257812 -20.515625 27.390625 -18.8125 29.015625 -17.09375 C 30.640625 -15.382812 31.453125 -13.238281 31.453125 -10.65625 Z M 31.453125 -10.65625 "/></g></g></g><g fill="#ffffff" fill-opacity="1"><g transform="translate(974.756262, 280.740476)"><g><path d="M 153.25 -164.21875 C 152.4375 -163.082031 151.617188 -161.617188 150.796875 -159.828125 C 149.984375 -158.035156 149.210938 -155.023438 148.484375 -150.796875 C 147.753906 -146.566406 147.1875 -140.628906 146.78125 -132.984375 C 146.375 -125.335938 146.171875 -115.171875 146.171875 -102.484375 L 146.171875 -49.046875 C 146.171875 -46.929688 145.359375 -45.875 143.734375 -45.875 C 142.097656 -45.875 140.710938 -46.929688 139.578125 -49.046875 L 72.234375 -152.03125 C 70.441406 -151.207031 68.691406 -149.941406 66.984375 -148.234375 C 65.273438 -146.523438 63.6875 -144.78125 62.21875 -143 C 60.4375 -141.039062 58.8125 -138.925781 57.34375 -136.65625 C 64.34375 -135.507812 69.753906 -132.738281 73.578125 -128.34375 C 77.398438 -123.957031 79.3125 -117.535156 79.3125 -109.078125 C 79.3125 -103.546875 78.578125 -98.296875 77.109375 -93.328125 C 75.640625 -88.367188 73.5625 -84.054688 70.875 -80.390625 C 68.195312 -76.734375 64.90625 -73.804688 61 -71.609375 C 57.09375 -69.421875 52.703125 -68.328125 47.828125 -68.328125 C 41.484375 -68.328125 35.789062 -69.832031 30.75 -72.84375 C 25.707031 -75.851562 21.4375 -79.835938 17.9375 -84.796875 C 14.4375 -89.753906 11.75 -95.363281 9.875 -101.625 C 8.007812 -107.894531 7.078125 -114.285156 7.078125 -120.796875 C 7.078125 -131.203125 7.847656 -139.695312 9.390625 -146.28125 C 10.941406 -152.875 13.019531 -157.796875 15.625 -161.046875 L 11.953125 -161.046875 L 6.828125 -165.9375 L 6.828125 -175.9375 L 14.890625 -184.484375 L 30.265625 -184.484375 L 32.203125 -181.546875 L 32.203125 -169.59375 L 28.3125 -161.046875 L 25.375 -161.046875 C 23.75 -159.910156 22.363281 -158.242188 21.21875 -156.046875 C 20.082031 -153.847656 19.1875 -151.363281 18.53125 -148.59375 C 17.882812 -145.832031 17.441406 -142.828125 17.203125 -139.578125 C 16.960938 -136.328125 16.84375 -133.15625 16.84375 -130.0625 C 16.84375 -127.132812 17.734375 -123.226562 19.515625 -118.34375 C 21.304688 -113.46875 23.867188 -108.710938 27.203125 -104.078125 C 30.535156 -99.441406 34.5625 -95.414062 39.28125 -92 C 44 -88.582031 49.367188 -86.875 55.390625 -86.875 C 60.921875 -86.875 64.820312 -88.132812 67.09375 -90.65625 C 69.375 -93.175781 70.515625 -95.898438 70.515625 -98.828125 C 70.515625 -100.617188 70.226562 -102.53125 69.65625 -104.5625 C 69.09375 -106.59375 68.078125 -108.539062 66.609375 -110.40625 C 65.148438 -112.28125 63.195312 -113.910156 60.75 -115.296875 C 58.3125 -116.679688 55.222656 -117.617188 51.484375 -118.109375 C 49.367188 -118.429688 47.414062 -118.835938 45.625 -119.328125 C 44.164062 -119.648438 42.863281 -120.054688 41.71875 -120.546875 C 40.582031 -121.035156 40.015625 -121.601562 40.015625 -122.25 C 40.015625 -123.0625 40.21875 -123.789062 40.625 -124.4375 C 41.03125 -125.09375 41.5625 -125.992188 42.21875 -127.140625 L 63.4375 -161.046875 L 54.421875 -161.046875 L 49.53125 -165.203125 L 49.53125 -176.671875 L 57.828125 -184.484375 L 102.734375 -184.484375 L 107.375 -180.8125 L 107.375 -169.59375 L 98.828125 -161.046875 L 93.453125 -161.046875 C 97.035156 -155.191406 100.128906 -149.863281 102.734375 -145.0625 C 105.335938 -140.269531 107.695312 -135.632812 109.8125 -131.15625 C 111.925781 -126.6875 113.914062 -122.210938 115.78125 -117.734375 C 117.65625 -113.265625 119.691406 -108.425781 121.890625 -103.21875 C 124.085938 -98.007812 126.523438 -92.273438 129.203125 -86.015625 C 131.890625 -79.753906 135.101562 -72.640625 138.84375 -64.671875 C 138.84375 -79.796875 138.394531 -93.296875 137.5 -105.171875 C 136.601562 -117.046875 135.460938 -127.128906 134.078125 -135.421875 C 132.703125 -143.722656 131.203125 -150.066406 129.578125 -154.453125 C 127.953125 -158.847656 126.40625 -161.046875 124.9375 -161.046875 L 124.9375 -175.6875 L 133.71875 -184.484375 L 149.09375 -184.484375 L 153.25 -179.84375 Z M 153.25 -164.21875 "/></g></g><g transform="translate(1135.807678, 280.740476)"><g><path d="M 29.28125 -184.484375 L 29.28125 -176.671875 L 20.984375 -161.046875 L 13.421875 -161.046875 L 4.640625 -176.671875 L 8.78125 -184.484375 Z M 29.28125 -184.484375 "/></g></g></g><g fill="#ffffff" fill-opacity="1"><g transform="translate(1169.970099, 280.740476)"><g><path d="M 78.8125 -184.484375 L 78.8125 -170.8125 C 80.769531 -168.375 82.113281 -165.242188 82.84375 -161.421875 C 83.570312 -157.597656 83.9375 -153 83.9375 -147.625 C 83.9375 -141.613281 82.632812 -136.976562 80.03125 -133.71875 C 77.4375 -130.46875 74.1875 -127.625 70.28125 -125.1875 C 78.25 -125.019531 85.160156 -122.898438 91.015625 -118.828125 C 96.867188 -114.765625 101.828125 -110.085938 105.890625 -104.796875 C 109.960938 -99.515625 113.21875 -94.351562 115.65625 -89.3125 C 118.101562 -84.269531 119.976562 -80.769531 121.28125 -78.8125 L 121.28125 -100.296875 C 121.28125 -106.316406 120.910156 -112.535156 120.171875 -118.953125 C 119.441406 -125.378906 118.425781 -131.398438 117.125 -137.015625 C 115.820312 -142.628906 114.359375 -147.550781 112.734375 -151.78125 C 111.109375 -156.007812 109.320312 -159.097656 107.375 -161.046875 L 107.375 -175.6875 L 116.390625 -184.484375 L 131.765625 -184.484375 L 135.671875 -179.84375 L 135.671875 -164.21875 C 134.367188 -163.738281 133.226562 -161.378906 132.25 -157.140625 C 131.28125 -152.910156 130.46875 -148.113281 129.8125 -142.75 C 129.164062 -137.382812 128.675781 -132.054688 128.34375 -126.765625 C 128.019531 -121.484375 127.859375 -117.539062 127.859375 -114.9375 L 127.859375 -70.28125 C 127.859375 -68.488281 127.128906 -67.59375 125.671875 -67.59375 C 124.859375 -67.59375 124.125 -67.914062 123.46875 -68.5625 C 122.820312 -69.21875 122.09375 -69.789062 121.28125 -70.28125 C 119.164062 -72.71875 116.234375 -75.765625 112.484375 -79.421875 C 108.742188 -83.085938 104.429688 -86.628906 99.546875 -90.046875 C 94.671875 -93.460938 89.425781 -96.390625 83.8125 -98.828125 C 78.207031 -101.265625 72.472656 -102.484375 66.609375 -102.484375 C 64.660156 -102.484375 63.113281 -102.320312 61.96875 -102 C 60.832031 -101.675781 59.773438 -101.347656 58.796875 -101.015625 C 57.828125 -100.691406 56.648438 -100.367188 55.265625 -100.046875 C 53.890625 -99.722656 51.976562 -99.5625 49.53125 -99.5625 C 48.070312 -99.5625 46.445312 -100.492188 44.65625 -102.359375 C 42.863281 -104.234375 41.96875 -106.632812 41.96875 -109.5625 C 41.96875 -112.488281 42.578125 -114.925781 43.796875 -116.875 C 45.015625 -118.832031 46.597656 -120.421875 48.546875 -121.640625 C 50.503906 -122.859375 52.703125 -123.753906 55.140625 -124.328125 C 57.585938 -124.898438 59.945312 -125.1875 62.21875 -125.1875 C 64.5 -127.457031 66.289062 -129.851562 67.59375 -132.375 C 68.894531 -134.894531 69.546875 -137.378906 69.546875 -139.828125 C 69.546875 -143.398438 68.8125 -146.53125 67.34375 -149.21875 C 65.882812 -151.90625 64.015625 -154.140625 61.734375 -155.921875 C 59.460938 -157.710938 56.898438 -159.015625 54.046875 -159.828125 C 51.203125 -160.640625 48.476562 -161.046875 45.875 -161.046875 L 37.09375 -161.046875 C 34.164062 -161.046875 31.113281 -160.3125 27.9375 -158.84375 C 24.769531 -157.382812 21.925781 -155.515625 19.40625 -153.234375 C 16.882812 -150.960938 14.769531 -148.320312 13.0625 -145.3125 C 11.351562 -142.300781 10.5 -139.332031 10.5 -136.40625 C 10.5 -131.363281 11.226562 -127.90625 12.6875 -126.03125 C 14.15625 -124.164062 15.863281 -122.863281 17.8125 -122.125 C 19.757812 -121.394531 21.671875 -120.664062 23.546875 -119.9375 C 25.421875 -119.207031 26.765625 -117.539062 27.578125 -114.9375 C 28.066406 -112.65625 28.796875 -109.847656 29.765625 -106.515625 C 30.742188 -103.179688 31.234375 -100.457031 31.234375 -98.34375 C 31.234375 -95.894531 30.335938 -94.671875 28.546875 -94.671875 C 27.085938 -95.003906 24.929688 -95.65625 22.078125 -96.625 C 19.234375 -97.601562 16.46875 -99.515625 13.78125 -102.359375 C 11.101562 -105.210938 8.742188 -109.238281 6.703125 -114.4375 C 4.671875 -119.644531 3.65625 -126.722656 3.65625 -135.671875 C 3.65625 -144.128906 5.117188 -150.960938 8.046875 -156.171875 C 10.972656 -161.378906 14.144531 -165.851562 17.5625 -169.59375 L 33.1875 -184.484375 Z M 140.5625 -31.96875 C 140.5625 -27.082031 139.503906 -22.523438 137.390625 -18.296875 C 135.273438 -14.066406 132.550781 -10.445312 129.21875 -7.4375 C 125.882812 -4.425781 122.179688 -2.023438 118.109375 -0.234375 C 114.046875 1.546875 110.0625 2.4375 106.15625 2.4375 C 100.945312 2.4375 96.59375 1.503906 93.09375 -0.359375 C 89.601562 -2.234375 86.390625 -4.710938 83.453125 -7.796875 C 80.523438 -10.890625 77.675781 -14.46875 74.90625 -18.53125 C 72.144531 -22.601562 68.9375 -26.875 65.28125 -31.34375 C 61.625 -35.820312 57.234375 -40.296875 52.109375 -44.765625 C 46.984375 -49.242188 40.675781 -53.519531 33.1875 -57.59375 C 30.59375 -58.894531 29.296875 -60.4375 29.296875 -62.21875 C 29.296875 -63.03125 29.617188 -63.679688 30.265625 -64.171875 C 30.910156 -64.660156 31.476562 -64.90625 31.96875 -64.90625 C 32.78125 -64.90625 33.59375 -64.820312 34.40625 -64.65625 C 35.226562 -64.5 36.53125 -64.015625 38.3125 -63.203125 C 46.125 -58.804688 53.445312 -53.800781 60.28125 -48.1875 C 67.113281 -42.582031 73.703125 -37.296875 80.046875 -32.328125 C 86.390625 -27.367188 92.53125 -23.140625 98.46875 -19.640625 C 104.40625 -16.140625 110.300781 -14.390625 116.15625 -14.390625 C 117.78125 -14.390625 119.53125 -14.59375 121.40625 -15 C 123.28125 -15.414062 124.945312 -16.109375 126.40625 -17.078125 C 127.875 -18.054688 129.09375 -19.359375 130.0625 -20.984375 C 131.039062 -22.609375 131.53125 -24.5625 131.53125 -26.84375 C 131.53125 -28.957031 130.835938 -30.703125 129.453125 -32.078125 C 128.078125 -33.460938 126.25 -34.5625 123.96875 -35.375 C 121.6875 -36.195312 119.160156 -36.769531 116.390625 -37.09375 C 113.628906 -37.414062 110.953125 -37.578125 108.359375 -37.578125 C 97.128906 -37.578125 91.515625 -40.910156 91.515625 -47.578125 C 91.515625 -50.671875 93.425781 -53.765625 97.25 -56.859375 C 101.070312 -59.953125 106.722656 -61.5 114.203125 -61.5 C 118.109375 -61.5 121.6875 -60.679688 124.9375 -59.046875 C 128.195312 -57.421875 130.960938 -55.265625 133.234375 -52.578125 C 135.515625 -49.898438 137.304688 -46.769531 138.609375 -43.1875 C 139.910156 -39.613281 140.5625 -35.875 140.5625 -31.96875 Z M 140.5625 -31.96875 "/></g></g></g><g fill="#ffffff" fill-opacity="1"><g transform="translate(1313.208253, 280.740476)"><g><path d="M 41.484375 -184.484375 L 47.34375 -178.859375 L 47.34375 -163.984375 C 46.363281 -162.515625 45.382812 -159.707031 44.40625 -155.5625 C 43.4375 -151.414062 42.503906 -146.332031 41.609375 -140.3125 C 40.710938 -134.289062 39.976562 -127.535156 39.40625 -120.046875 C 38.84375 -112.566406 38.5625 -104.757812 38.5625 -96.625 L 38.5625 14.890625 C 38.5625 15.703125 38.113281 16.3125 37.21875 16.71875 C 36.320312 17.125 35.707031 17.328125 35.375 17.328125 C 34.726562 17.328125 33.914062 17.125 32.9375 16.71875 C 31.96875 16.3125 31.484375 15.703125 31.484375 14.890625 L 31.484375 -62.46875 C 31.484375 -73.53125 30.953125 -84.710938 29.890625 -96.015625 C 28.835938 -107.328125 27.414062 -117.898438 25.625 -127.734375 C 23.832031 -137.578125 21.753906 -146.320312 19.390625 -153.96875 C 17.035156 -161.613281 14.554688 -167.3125 11.953125 -171.0625 L 25.375 -184.484375 Z M 41.484375 -184.484375 "/></g></g></g></svg>